<?xml version="1.0" encoding="utf-8"?>
<!-- Generator: Adobe Illustrator 25.4.0, SVG Export Plug-In . SVG Version: 6.00 Build 0)  -->
<svg version="1.1" id="레이어_1" xmlns="http://www.w3.org/2000/svg" xmlns:xlink="http://www.w3.org/1999/xlink" x="0px"
	 y="0px" viewBox="0 0 320 380" style="enable-background:new 0 0 320 380;" xml:space="preserve">
<g>
	<path d="M90.6,209.2l10.6-12.3c10.7-11.9,19.2-20.7,25.5-26.5c6.3-5.8,11.9-10,16.9-12.6c5-2.6,10-3.9,15.2-3.9
		c8.3,0,14.2,2.2,17.6,6.7c3.4,4.5,5.1,12.2,5.1,23.2c0,4.6-0.5,11.3-1.4,20.2c-1.4,11.8-2.1,23-2.1,33.4c0,11.7,0.6,21.2,1.8,28.5
		c0.8,4.5,2,8.9,3.7,13.4c1.2,4.2,1.8,7.1,1.8,8.6c0,1.9-0.7,3.3-2.1,4.4c-3.6,3.2-8.4,5.9-14.4,8.3s-11,3.5-15.1,3.5
		c-6.7,0-12.7-2.3-18.2-6.9s-9.7-10.9-12.7-19s-4.5-17.2-4.5-27.4c0-6.8,0.7-14.8,2.1-24.1l-0.7-0.7c-5,5.6-9.1,10.1-12.2,13.4
		c-3.1,3.3-6,6.4-8.7,9.3c-13.1,15-24.3,28.5-33.4,40.6c-3.5,4.7-6.7,8.8-9.7,12.3c-4.3,4.3-9.3,6.5-14.8,6.5
		c-7.5,0-13.6-2.8-18.3-8.4c-4.7-5.6-7-12.9-7-21.8c0-5.5,0.6-12.2,1.9-20.2c1.3-8,3-16.5,5.2-25.6c2.2-9.1,4.7-18.4,7.7-28
		c3-9.6,6.2-18.7,9.8-27.4c5.4-14.4,12-25.7,19.7-33.8c5.3-5.3,11.7-7.9,19.2-7.9c12.2,0,18.3,7.9,18.3,23.7
		c0,11.6-2.4,28.2-7.3,49.9L90.6,209.2z"/>
	<path d="M232.2,131.9l0.7-2.1c7.7-21.8,14.4-37.1,20.1-46.1c2.7-4.2,6.5-8,11.3-11.2c9-5.7,17.5-8.6,25.5-8.6
		c4.7,0,8.3,1.1,10.7,3.2c2.5,2.1,3.7,5.2,3.7,9.2c0,2.7-1.8,8.2-5.3,16.5c-6,13.8-10.5,26.8-13.4,38.8c2,0.2,3.9,0.6,5.8,1.1
		c7,1.1,11.7,2.3,13.9,3.6c2.2,1.3,3.3,3.8,3.3,7.3c0,6.2-1.6,12-4.7,17.2c-3.2,5.3-7.3,9.1-12.5,11.6c-3.9,1.8-10.1,2.9-18.8,3.5
		c-1.5,4.6-3.2,10.8-5,18.8c-1,7-2.2,16.8-3.5,29.2c-0.7,4.6-1.1,8.8-1.1,12.8c0,18.5,9,27.8,26.9,27.8h1.1h0.5
		c2.1,0,3.2,0.4,3.2,1.1c0,1.9-2,5-6,9.5c-4,4.5-8.4,8.4-13.2,11.8c-5.2,3.5-10.8,6.3-16.9,8.4c-6.1,2.1-11.6,3.2-16.6,3.2
		c-12.3,0-22.3-4.2-30-12.5c-7.7-8.3-11.5-19.3-11.5-33c0-5.9,1-13.5,3.1-23c2-9.5,5.2-22.2,9.6-38.1c0.7-2.8,1.5-5.8,2.3-8.9
		c0.8-3.1,1.3-4.9,1.4-5.5c-4.7-0.1-8-1.1-10-3c-2-1.9-3-4.9-3-9.1c0-7.4,2.8-14.4,8.5-20.9C217.9,137.6,224.5,133.5,232.2,131.9z"
		/>
</g>
<g>
</g>
<g>
</g>
<g>
</g>
<g>
</g>
<g>
</g>
<g>
</g>
<g>
</g>
<g>
</g>
<g>
</g>
<g>
</g>
<g>
</g>
<g>
</g>
<g>
</g>
<g>
</g>
<g>
</g>
</svg>
